<?xml version="1.0" standalone="no"?>
<!DOCTYPE svg PUBLIC "-//W3C//DTD SVG 20010904//EN"
 "http://www.w3.org/TR/2001/REC-SVG-20010904/DTD/svg10.dtd">
<svg version="1.0" xmlns="http://www.w3.org/2000/svg"
 width="300.000000pt" height="300.000000pt" viewBox="0 0 300.000000 300.000000"
 preserveAspectRatio="xMidYMid meet">
<metadata>
Created by potrace 1.10, written by Peter Selinger 2001-2011
</metadata>
<g transform="translate(0.000000,300.000000) scale(0.100000,-0.100000)"
fill="#000000" stroke="none">
<path d="M1235 2975 c-316 -58 -585 -203 -812 -438 -207 -215 -334 -455 -392
-744 -22 -108 -27 -178 -12 -187 11 -7 21 17 21 52 0 43 36 204 65 294 168
526 635 920 1180 998 115 17 125 19 125 30 0 14 -90 11 -175 -5z"/>
<path d="M1595 2980 c-3 -5 -2 -10 3 -10 28 0 247 -43 307 -60 533 -153 938
-599 1039 -1145 25 -133 25 -135 38 -135 16 0 3 117 -28 240 -140 555 -593
984 -1161 1099 -109 23 -188 27 -198 11z"/>
<path d="M2122 2130 c-18 -11 -224 -212 -457 -446 -233 -234 -428 -424 -434
-423 -5 2 -95 88 -200 192 -222 220 -255 239 -342 203 -41 -18 -254 -231 -268
-270 -15 -39 -14 -83 4 -120 18 -37 683 -709 730 -738 45 -27 114 -24 160 7
32 22 1136 1119 1189 1182 24 29 36 97 24 140 -11 41 -192 232 -254 269 -50
30 -107 31 -152 4z m142 -31 c15 -12 72 -67 127 -122 108 -109 128 -146 110
-200 -8 -22 -191 -212 -614 -635 l-602 -602 -55 0 -54 0 -354 353 c-194 193
-360 364 -368 379 -18 34 -18 81 0 116 8 15 63 75 123 133 176 173 172 174
446 -103 l209 -211 451 450 c249 248 459 453 467 456 36 13 88 6 114 -14z"/>
<path d="M10 1353 c0 -173 104 -474 230 -668 242 -372 661 -635 1065 -671 100
-9 74 11 -46 35 -152 30 -229 54 -347 105 -76 33 -206 104 -242 133 -8 6 -40
30 -70 53 -283 209 -501 583 -553 949 -7 54 -18 96 -25 99 -8 2 -12 -9 -12
-35z"/>
<path d="M2970 1366 c0 -21 -45 -236 -61 -290 -45 -152 -131 -321 -236 -463
-63 -87 -202 -228 -269 -274 -27 -18 -67 -47 -89 -64 -60 -45 -257 -140 -363
-174 -72 -24 -278 -71 -308 -71 -2 0 -4 -4 -4 -10 0 -24 169 2 314 47 116 36
306 131 411 204 115 82 282 249 363 364 106 150 201 364 238 535 21 98 29 200
15 200 -6 0 -11 -2 -11 -4z"/>
</g>
</svg>
